<svg xmlns="http://www.w3.org/2000/svg" width="180" height="31.085" viewBox="0 0 180 31.085">
  <g id="Position_Logo_Horizontal_Colors" transform="translate(0 0.025)">
    <path id="Tracé_108" data-name="Tracé 108" d="M15.413.4H0V15.849A15.486,15.486,0,0,0,15.413,31.262h0V24.3h0a11.952,11.952,0,0,0,0-23.9Z" transform="translate(0 -0.273)" fill="#fa5c19"/>
    <path id="Tracé_109" data-name="Tracé 109" d="M27.892,19.9H19.4v8.492a8.5,8.5,0,0,0,8.492,8.456h0V30.068h0a5.1,5.1,0,0,0,5.1-5.1h0A5.093,5.093,0,0,0,27.892,19.9Z" transform="translate(-12.478 -12.816)" fill="#bd1622"/>
    <path id="Tracé_110" data-name="Tracé 110" d="M110.9,43.362v-23.9h3.889l.25,2.355a6.732,6.732,0,0,1,5.495-2.712c5.173,0,8.634,3.853,8.634,8.813s-3.1,8.813-8.492,8.813c-1.784,0-4.424-.535-5.637-2.39v9.027Zm14.093-15.449a4.781,4.781,0,1,0-9.562,0,4.781,4.781,0,1,0,9.562,0Z" transform="translate(-71.332 -12.301)"/>
    <path id="Tracé_111" data-name="Tracé 111" d="M185.918,27.977a8.408,8.408,0,0,1-8.777,8.777c-5.459,0-8.741-3.925-8.741-8.777a8.39,8.39,0,0,1,8.706-8.777A8.5,8.5,0,0,1,185.918,27.977Zm-13.38,0c0,2.569,1.57,4.959,4.6,4.959s4.567-2.39,4.567-4.959a4.742,4.742,0,0,0-4.567-5A4.792,4.792,0,0,0,172.539,27.977Z" transform="translate(-108.317 -12.366)"/>
    <path id="Tracé_112" data-name="Tracé 112" d="M234.117,23.759a5.556,5.556,0,0,0-4.174-1.5c-1.641,0-3.068.607-3.068,1.677s1,1.713,3.14,1.82c3.175.214,7.243.928,7.243,5.423,0,2.961-2.462,5.53-7.278,5.53a9.955,9.955,0,0,1-7.778-3l2.069-3a9.058,9.058,0,0,0,5.78,2.355c1.855.036,3.068-.785,3.068-2s-.963-1.641-3.354-1.784c-3.175-.25-6.993-1.391-6.993-5.245S226.8,18.8,229.907,18.8s4.6.5,6.529,2.212Z" transform="translate(-142.921 -12.108)"/>
    <path id="Tracé_113" data-name="Tracé 113" d="M275.924,2.41c0,3.247-4.924,3.247-4.924,0S275.924-.837,275.924,2.41Zm-4.531,4.674V24.031h4.174V7.084Z" transform="translate(-174.31 0)"/>
    <path id="Tracé_114" data-name="Tracé 114" d="M297.314,6.8v4.781h4.638v3.6h-4.674v7.278c0,1.606.856,2.39,2.176,2.39a4.86,4.86,0,0,0,2-.5l1.177,3.532a8.968,8.968,0,0,1-3.461.714c-3.639.143-6.03-1.927-6.03-6.137V15.185H290v-3.6h3.14V7.264Z" transform="translate(-186.531 -4.39)"/>
    <path id="Tracé_115" data-name="Tracé 115" d="M335.624,2.41c0,3.247-4.924,3.247-4.924,0S335.624-.837,335.624,2.41Zm-4.531,4.674V24.031h4.174V7.084Z" transform="translate(-212.71 0)"/>
    <path id="Tracé_116" data-name="Tracé 116" d="M369.018,27.977a8.408,8.408,0,0,1-8.777,8.777c-5.459,0-8.741-3.925-8.741-8.777a8.41,8.41,0,0,1,8.706-8.777A8.518,8.518,0,0,1,369.018,27.977Zm-13.344,0c0,2.569,1.534,4.959,4.567,4.959s4.567-2.39,4.567-4.959a4.585,4.585,0,1,0-9.134,0Z" transform="translate(-226.089 -12.366)"/>
    <path id="Tracé_117" data-name="Tracé 117" d="M421.188,36.526V27.678c0-2.533-1.391-4.5-4.067-4.5s-4.281,2.141-4.281,4.71v8.634H408.7V19.614h3.711l.285,2.319a7.611,7.611,0,0,1,5.53-2.533c3.96,0,7.136,2.961,7.136,8.278v8.848h-4.174Z" transform="translate(-262.88 -12.494)"/>
    <path id="Tracé_118" data-name="Tracé 118" d="M474.252,23.759a5.658,5.658,0,0,0-4.174-1.5c-1.606,0-3.068.607-3.068,1.677s.963,1.713,3.14,1.82c3.175.214,7.207.928,7.207,5.423,0,2.961-2.426,5.53-7.243,5.53a9.983,9.983,0,0,1-7.814-3l2.069-3a9.075,9.075,0,0,0,5.816,2.355c1.891.036,3.033-.785,3.033-2s-.963-1.641-3.354-1.784c-3.175-.25-6.957-1.391-6.957-5.245s4.032-5.245,7.1-5.245,4.6.5,6.565,2.212Z" transform="translate(-297.356 -12.108)"/>
  </g>
</svg>
